<svg xmlns="http://www.w3.org/2000/svg" viewBox="0 0 500 500"><g id="freepik--background-simple--inject-32"><path d="M273.59,16.87c43.48,8.75,92.89,32.93,113.09,74.87,30.53,63.36,85.44,62.72,99.55,182.71a244,244,0,0,1,.7,52.75,205.25,205.25,0,0,1-4.18,25.52C465.69,426.87,409.44,473.13,345,486.55c-84.78,17.66-135-35.42-165.08-70.34S50,349.4,35.2,231.55a235.7,235.7,0,0,1-.75-54.21c4.36-41.15,21.55-85,52.33-113.85q3.47-3.24,7.15-6.28C141.83,17.56,214.31,4.94,273.59,16.87Z" style="fill:#90E0EF"></path><path d="M273.59,16.87c43.48,8.75,92.89,32.93,113.09,74.87,30.53,63.36,85.44,62.72,99.55,182.71a244,244,0,0,1,.7,52.75,205.25,205.25,0,0,1-4.18,25.52C465.69,426.87,409.44,473.13,345,486.55c-84.78,17.66-135-35.42-165.08-70.34S50,349.4,35.2,231.55a235.7,235.7,0,0,1-.75-54.21c4.36-41.15,21.55-85,52.33-113.85q3.47-3.24,7.15-6.28C141.83,17.56,214.31,4.94,273.59,16.87Z" style="fill:#fff;opacity:0.7000000000000001"></path></g></svg>
